<svg width="72" height="48" viewBox="0 0 72 48" fill="none" xmlns="http://www.w3.org/2000/svg">
<rect x="-1.5" y="1.5" width="69" height="43.7228" rx="18.5" transform="matrix(-1 0 0 1 69 0.297852)" fill="white" stroke="#272727" stroke-width="3"/>
<path d="M49.1429 22.1492C49.9713 22.1492 50.6429 22.8208 50.6429 23.6492C50.6429 24.4776 49.9713 25.1492 49.1429 25.1492V22.1492ZM21.812 24.7099C21.2262 24.1241 21.2262 23.1743 21.812 22.5885L31.3579 13.0426C31.9437 12.4568 32.8934 12.4568 33.4792 13.0426C34.065 13.6284 34.065 14.5781 33.4792 15.1639L24.9939 23.6492L33.4792 32.1345C34.065 32.7203 34.065 33.67 33.4792 34.2558C32.8934 34.8416 31.9437 34.8416 31.3579 34.2558L21.812 24.7099ZM49.1429 25.1492H22.8726V22.1492H49.1429V25.1492Z" fill="#272727"/>
</svg>
