<svg width="73" height="76" viewBox="0 0 73 76" fill="none" xmlns="http://www.w3.org/2000/svg">
<mask id="path-1-inside-1_215_2009" fill="white">
<path fill-rule="evenodd" clip-rule="evenodd" d="M38.191 0.88276C37.9064 -0.0432224 36.6032 -0.0640737 36.2891 0.85233L30.5499 17.5994L16.4552 6.88751C15.684 6.30135 14.6132 7.04457 14.8926 7.97212L20.056 25.1116L2.15806 24.8252C1.18946 24.8097 0.766903 26.0427 1.54141 26.6246L15.6952 37.258L1.15219 47.3527C0.356388 47.905 0.732361 49.1531 1.70086 49.1739L19.597 49.5596L13.7939 66.4932C13.4798 67.4096 14.5219 68.1925 15.3147 67.6357L29.8014 57.4605L34.9079 74.4111C35.1874 75.3387 36.4905 75.3668 36.8096 74.4521L42.7066 57.551L57.0182 68.3029C57.7927 68.8848 58.8593 68.1357 58.5747 67.2097L53.3742 50.2876L71.0732 50.669C72.0417 50.6899 72.4711 49.4593 71.6998 48.8731L57.4482 38.042L72.0964 27.7535C72.8891 27.1967 72.5062 25.9508 71.5376 25.9353L53.8367 25.6521L59.6688 8.93714C59.9879 8.02249 58.9502 7.23382 58.1544 7.7862L43.4494 17.9932L38.191 0.88276Z"/>
</mask>
<path fill-rule="evenodd" clip-rule="evenodd" d="M38.191 0.88276C37.9064 -0.0432224 36.6032 -0.0640737 36.2891 0.85233L30.5499 17.5994L16.4552 6.88751C15.684 6.30135 14.6132 7.04457 14.8926 7.97212L20.056 25.1116L2.15806 24.8252C1.18946 24.8097 0.766903 26.0427 1.54141 26.6246L15.6952 37.258L1.15219 47.3527C0.356388 47.905 0.732361 49.1531 1.70086 49.1739L19.597 49.5596L13.7939 66.4932C13.4798 67.4096 14.5219 68.1925 15.3147 67.6357L29.8014 57.4605L34.9079 74.4111C35.1874 75.3387 36.4905 75.3668 36.8096 74.4521L42.7066 57.551L57.0182 68.3029C57.7927 68.8848 58.8593 68.1357 58.5747 67.2097L53.3742 50.2876L71.0732 50.669C72.0417 50.6899 72.4711 49.4593 71.6998 48.8731L57.4482 38.042L72.0964 27.7535C72.8891 27.1967 72.5062 25.9508 71.5376 25.9353L53.8367 25.6521L59.6688 8.93714C59.9879 8.02249 58.9502 7.23382 58.1544 7.7862L43.4494 17.9932L38.191 0.88276Z" fill="#EA7838"/>
<path d="M36.2891 0.85233L39.1271 1.82491V1.82491L36.2891 0.85233ZM38.191 0.88276L41.0586 0.00147316V0.00146706L38.191 0.88276ZM30.5499 17.5994L28.7346 19.9879C29.5015 20.5707 30.5017 20.7498 31.4232 20.4694C32.3447 20.189 33.0756 19.4832 33.3878 18.5719L30.5499 17.5994ZM16.4552 6.88751L14.64 9.276L14.64 9.276L16.4552 6.88751ZM14.8926 7.97212L17.7651 7.10676V7.10676L14.8926 7.97212ZM20.056 25.1116L20.0081 28.1112C20.9653 28.1265 21.8724 27.684 22.4496 26.9202C23.0267 26.1563 23.2047 25.1629 22.9285 24.2462L20.056 25.1116ZM2.15806 24.8252L2.20605 21.8256H2.20605L2.15806 24.8252ZM1.54141 26.6246L3.34337 24.2261H3.34336L1.54141 26.6246ZM15.6952 37.258L17.4059 39.7225C18.1972 39.1732 18.6766 38.2774 18.6947 37.3143C18.7128 36.3513 18.2673 35.4381 17.4972 34.8595L15.6952 37.258ZM1.15219 47.3527L-0.558463 44.8882H-0.558465L1.15219 47.3527ZM1.70086 49.1739L1.63622 52.1732H1.63622L1.70086 49.1739ZM19.597 49.5596L22.435 50.5322C22.7454 49.6265 22.6049 48.6271 22.0568 47.8421C21.5087 47.0572 20.6188 46.5809 19.6617 46.5603L19.597 49.5596ZM13.7939 66.4932L16.6319 67.4658H16.6319L13.7939 66.4932ZM15.3147 67.6357L13.5904 65.1807H13.5903L15.3147 67.6357ZM29.8014 57.4605L32.6739 56.5951C32.3961 55.6728 31.6922 54.94 30.7819 54.6252C29.8715 54.3104 28.8654 54.4519 28.0771 55.0055L29.8014 57.4605ZM34.9079 74.4111L37.7804 73.5458L34.9079 74.4111ZM36.8096 74.4521L33.9771 73.4638H33.9771L36.8096 74.4521ZM42.7066 57.551L44.5086 55.1525C43.7432 54.5775 42.7492 54.4023 41.8333 54.681C40.9174 54.9597 40.1895 55.6588 39.8741 56.5627L42.7066 57.551ZM57.0182 68.3029L55.2162 70.7015L55.2162 70.7015L57.0182 68.3029ZM58.5747 67.2097L61.4423 66.3284H61.4423L58.5747 67.2097ZM53.3742 50.2876L53.4388 47.2883C52.4758 47.2675 51.5614 47.7105 50.9806 48.479C50.3999 49.2475 50.2236 50.2481 50.5065 51.1689L53.3742 50.2876ZM71.0732 50.669L71.1378 47.6697L71.0732 50.669ZM71.6998 48.8731L69.8846 51.2616L71.6998 48.8731ZM57.4482 38.042L55.7239 35.587C54.9405 36.1373 54.4668 37.0285 54.4488 37.9857C54.4308 38.9429 54.8708 39.8512 55.633 40.4305L57.4482 38.042ZM72.0964 27.7535L70.3721 25.2985V25.2985L72.0964 27.7535ZM71.5376 25.9353L71.5856 22.9357L71.5376 25.9353ZM53.8367 25.6521L51.0042 24.6638C50.6868 25.5732 50.8255 26.5798 51.377 27.3696C51.9284 28.1593 52.8256 28.6363 53.7887 28.6517L53.8367 25.6521ZM59.6688 8.93714L62.5013 9.92545L59.6688 8.93714ZM58.1544 7.7862L59.865 10.2507V10.2507L58.1544 7.7862ZM43.4494 17.9932L40.5818 18.8745C40.863 19.7897 41.5641 20.5156 42.4689 20.8285C43.3738 21.1414 44.3736 21.0036 45.16 20.4577L43.4494 17.9932ZM39.1271 1.82491C38.499 3.65772 35.8925 3.616 35.3233 1.76405L41.0586 0.00146706C39.9203 -3.70245 34.7073 -3.78587 33.4511 -0.120247L39.1271 1.82491ZM33.3878 18.5719L39.1271 1.82491L33.4511 -0.120248L27.7119 16.6268L33.3878 18.5719ZM14.64 9.276L28.7346 19.9879L32.3651 15.2109L18.2705 4.49901L14.64 9.276ZM17.7651 7.10676C18.324 8.96187 16.1825 10.4483 14.64 9.276L18.2705 4.49901C15.1854 2.1544 10.9024 5.12728 12.0202 8.83748L17.7651 7.10676ZM22.9285 24.2462L17.7651 7.10676L12.0202 8.83748L17.1836 25.9769L22.9285 24.2462ZM2.11006 27.8248L20.0081 28.1112L20.104 22.112L2.20605 21.8256L2.11006 27.8248ZM3.34336 24.2261C4.89239 25.3898 4.04725 27.8558 2.11007 27.8248L2.20605 21.8256C-1.66833 21.7636 -3.35858 26.6956 -0.260549 29.0231L3.34336 24.2261ZM17.4972 34.8595L3.34337 24.2261L-0.260551 29.0231L13.8933 39.6565L17.4972 34.8595ZM2.86284 49.8171L17.4059 39.7225L13.9846 34.7935L-0.558463 44.8882L2.86284 49.8171ZM1.7655 46.1746C3.70248 46.2164 4.45445 48.7124 2.86284 49.8171L-0.558465 44.8882C-3.74167 47.0977 -2.23776 52.0897 1.63622 52.1732L1.7655 46.1746ZM19.6617 46.5603L1.7655 46.1746L1.63622 52.1732L19.5324 52.5589L19.6617 46.5603ZM16.6319 67.4658L22.435 50.5322L16.7591 48.587L10.9559 65.5206L16.6319 67.4658ZM13.5903 65.1807C15.1758 64.0672 17.26 65.6329 16.6319 67.4658L10.9559 65.5206C9.6997 69.1862 13.8681 72.3178 17.039 70.0906L13.5903 65.1807ZM28.0771 55.0055L13.5904 65.1807L17.039 70.0906L31.5257 59.9154L28.0771 55.0055ZM37.7804 73.5458L32.6739 56.5951L26.9289 58.3259L32.0355 75.2765L37.7804 73.5458ZM33.9771 73.4638C34.6153 71.6345 37.2216 71.6907 37.7804 73.5458L32.0355 75.2765C33.1532 78.9867 38.3656 79.099 39.6422 75.4404L33.9771 73.4638ZM39.8741 56.5627L33.9771 73.4638L39.6421 75.4404L45.5392 58.5394L39.8741 56.5627ZM58.8201 65.9044L44.5086 55.1525L40.9047 59.9496L55.2162 70.7015L58.8201 65.9044ZM55.7071 68.091C55.1379 66.239 57.2711 64.7407 58.8201 65.9044L55.2162 70.7015C58.3142 73.0289 62.5806 70.0323 61.4423 66.3284L55.7071 68.091ZM50.5065 51.1689L55.7071 68.091L61.4423 66.3284L56.2418 49.4063L50.5065 51.1689ZM71.1378 47.6697L53.4388 47.2883L53.3095 53.2869L71.0085 53.6683L71.1378 47.6697ZM69.8846 51.2616C68.342 50.0893 69.2008 47.628 71.1378 47.6697L71.0085 53.6683C74.8825 53.7518 76.6001 48.8292 73.515 46.4846L69.8846 51.2616ZM55.633 40.4305L69.8846 51.2616L73.515 46.4846L59.2635 35.6535L55.633 40.4305ZM70.3721 25.2985L55.7239 35.587L59.1726 40.4969L73.8207 30.2084L70.3721 25.2985ZM71.4896 28.9349C69.5524 28.9039 68.7866 26.4121 70.3721 25.2985L73.8207 30.2084C76.9916 27.9812 75.46 22.9977 71.5856 22.9357L71.4896 28.9349ZM53.7887 28.6517L71.4896 28.9349L71.5856 22.9357L53.8847 22.6525L53.7887 28.6517ZM56.8362 7.94882L51.0042 24.6638L56.6692 26.6404L62.5013 9.92545L56.8362 7.94882ZM59.865 10.2507C58.2734 11.3555 56.198 9.7781 56.8362 7.94882L62.5013 9.92545C63.7778 6.26688 59.6269 3.11218 56.4437 5.32172L59.865 10.2507ZM45.16 20.4577L59.865 10.2507L56.4437 5.32172L41.7387 15.5288L45.16 20.4577ZM35.3233 1.76405L40.5818 18.8745L46.317 17.112L41.0586 0.00147316L35.3233 1.76405Z" fill="black" mask="url(#path-1-inside-1_215_2009)"/>
</svg>
