<svg width="178" height="49" viewBox="0 0 178 49" fill="none" xmlns="http://www.w3.org/2000/svg">
<rect width="178" height="48.0206" rx="24.0103" fill="#0C41E3"/>
<path d="M37.3825 30.14C36.4092 30.14 35.5292 29.9733 34.7425 29.64C33.9692 29.3067 33.3558 28.8267 32.9025 28.2C32.4492 27.5733 32.2158 26.8333 32.2025 25.98H35.2025C35.2425 26.5533 35.4425 27.0067 35.8025 27.34C36.1758 27.6733 36.6825 27.84 37.3225 27.84C37.9758 27.84 38.4892 27.6867 38.8625 27.38C39.2358 27.06 39.4225 26.6467 39.4225 26.14C39.4225 25.7267 39.2958 25.3867 39.0425 25.12C38.7892 24.8533 38.4692 24.6467 38.0825 24.5C37.7092 24.34 37.1892 24.1667 36.5225 23.98C35.6158 23.7133 34.8758 23.4533 34.3025 23.2C33.7425 22.9333 33.2558 22.54 32.8425 22.02C32.4425 21.4867 32.2425 20.78 32.2425 19.9C32.2425 19.0733 32.4492 18.3533 32.8625 17.74C33.2758 17.1267 33.8558 16.66 34.6025 16.34C35.3492 16.0067 36.2025 15.84 37.1625 15.84C38.6025 15.84 39.7692 16.1933 40.6625 16.9C41.5692 17.5933 42.0692 18.5667 42.1625 19.82H39.0825C39.0558 19.34 38.8492 18.9467 38.4625 18.64C38.0892 18.32 37.5892 18.16 36.9625 18.16C36.4158 18.16 35.9758 18.3 35.6425 18.58C35.3225 18.86 35.1625 19.2667 35.1625 19.8C35.1625 20.1733 35.2825 20.4867 35.5225 20.74C35.7758 20.98 36.0825 21.18 36.4425 21.34C36.8158 21.4867 37.3358 21.66 38.0025 21.86C38.9092 22.1267 39.6492 22.3933 40.2225 22.66C40.7958 22.9267 41.2892 23.3267 41.7025 23.86C42.1158 24.3933 42.3225 25.0933 42.3225 25.96C42.3225 26.7067 42.1292 27.4 41.7425 28.04C41.3558 28.68 40.7892 29.1933 40.0425 29.58C39.2958 29.9533 38.4092 30.14 37.3825 30.14ZM48.41 21.22V26.58C48.41 26.9533 48.4967 27.2267 48.67 27.4C48.8567 27.56 49.1633 27.64 49.59 27.64H50.89V30H49.13C46.77 30 45.59 28.8533 45.59 26.56V21.22H44.27V18.92H45.59V16.18H48.41V18.92H50.89V21.22H48.41ZM52.5839 24.42C52.5839 23.3 52.8039 22.3067 53.2439 21.44C53.6972 20.5733 54.3039 19.9067 55.0639 19.44C55.8372 18.9733 56.6972 18.74 57.6439 18.74C58.4706 18.74 59.1906 18.9067 59.8039 19.24C60.4306 19.5733 60.9306 19.9933 61.3039 20.5V18.92H64.1239V30H61.3039V28.38C60.9439 28.9 60.4439 29.3333 59.8039 29.68C59.1772 30.0133 58.4506 30.18 57.6239 30.18C56.6906 30.18 55.8372 29.94 55.0639 29.46C54.3039 28.98 53.6972 28.3067 53.2439 27.44C52.8039 26.56 52.5839 25.5533 52.5839 24.42ZM61.3039 24.46C61.3039 23.78 61.1706 23.2 60.9039 22.72C60.6372 22.2267 60.2772 21.8533 59.8239 21.6C59.3706 21.3333 58.8839 21.2 58.3639 21.2C57.8439 21.2 57.3639 21.3267 56.9239 21.58C56.4839 21.8333 56.1239 22.2067 55.8439 22.7C55.5772 23.18 55.4439 23.7533 55.4439 24.42C55.4439 25.0867 55.5772 25.6733 55.8439 26.18C56.1239 26.6733 56.4839 27.0533 56.9239 27.32C57.3772 27.5867 57.8572 27.72 58.3639 27.72C58.8839 27.72 59.3706 27.5933 59.8239 27.34C60.2772 27.0733 60.6372 26.7 60.9039 26.22C61.1706 25.7267 61.3039 25.14 61.3039 24.46ZM70.0586 20.64C70.4186 20.0533 70.8853 19.5933 71.4586 19.26C72.0453 18.9267 72.7119 18.76 73.4586 18.76V21.7H72.7186C71.8386 21.7 71.1719 21.9067 70.7186 22.32C70.2786 22.7333 70.0586 23.4533 70.0586 24.48V30H67.2586V18.92H70.0586V20.64ZM79.0045 21.22V26.58C79.0045 26.9533 79.0912 27.2267 79.2645 27.4C79.4512 27.56 79.7579 27.64 80.1845 27.64H81.4845V30H79.7245C77.3645 30 76.1845 28.8533 76.1845 26.56V21.22H74.8645V18.92H76.1845V16.18H79.0045V18.92H81.4845V21.22H79.0045Z" fill="#F6F6F6"/>
<path d="M131 22.5C130.172 22.5 129.5 23.1716 129.5 24C129.5 24.8284 130.172 25.5 131 25.5V22.5ZM159.061 25.0607C159.646 24.4749 159.646 23.5251 159.061 22.9393L149.515 13.3934C148.929 12.8076 147.979 12.8076 147.393 13.3934C146.808 13.9792 146.808 14.9289 147.393 15.5147L155.879 24L147.393 32.4853C146.808 33.0711 146.808 34.0208 147.393 34.6066C147.979 35.1924 148.929 35.1924 149.515 34.6066L159.061 25.0607ZM131 25.5H158V22.5H131V25.5Z" fill="#F6F6F6"/>
</svg>
