<svg width="114" height="115" viewBox="0 0 114 115" fill="none" xmlns="http://www.w3.org/2000/svg">
<mask id="path-1-inside-1_110_221" fill="white">
<path fill-rule="evenodd" clip-rule="evenodd" d="M79.6677 28.5909C79.9868 27.6762 78.9491 26.8876 78.1533 27.4399L63.4483 37.647L58.1899 20.5365C57.9053 19.6105 56.6021 19.5897 56.288 20.5061L50.5488 37.2531L36.4541 26.5412C35.6829 25.9551 34.6121 26.6983 34.8916 27.6259L40.055 44.7653L22.157 44.4789C21.1884 44.4634 20.7658 45.6965 21.5403 46.2783L35.6941 56.9118L21.1511 67.0064C20.3553 67.5588 20.7313 68.8068 21.6998 68.8277L39.5959 69.2134L33.7928 86.1469C33.4787 87.0633 34.5208 87.8462 35.3136 87.2894L49.8003 77.1142L54.9069 94.0649C55.1863 94.9924 56.4894 95.0205 56.8085 94.1059L62.7056 77.2048L77.0171 87.9567C77.7916 88.5385 78.8582 87.7894 78.5736 86.8634L73.3731 69.9413L91.0721 70.3228C92.0406 70.3436 92.47 69.113 91.6987 68.5268L77.4471 57.6957L92.0953 47.4072C92.888 46.8504 92.5051 45.6045 91.5365 45.589L73.8356 45.3058L79.6677 28.5909Z"/>
</mask>
<path fill-rule="evenodd" clip-rule="evenodd" d="M79.6677 28.5909C79.9868 27.6762 78.9491 26.8876 78.1533 27.4399L63.4483 37.647L58.1899 20.5365C57.9053 19.6105 56.6021 19.5897 56.288 20.5061L50.5488 37.2531L36.4541 26.5412C35.6829 25.9551 34.6121 26.6983 34.8916 27.6259L40.055 44.7653L22.157 44.4789C21.1884 44.4634 20.7658 45.6965 21.5403 46.2783L35.6941 56.9118L21.1511 67.0064C20.3553 67.5588 20.7313 68.8068 21.6998 68.8277L39.5959 69.2134L33.7928 86.1469C33.4787 87.0633 34.5208 87.8462 35.3136 87.2894L49.8003 77.1142L54.9069 94.0649C55.1863 94.9924 56.4894 95.0205 56.8085 94.1059L62.7056 77.2048L77.0171 87.9567C77.7916 88.5385 78.8582 87.7894 78.5736 86.8634L73.3731 69.9413L91.0721 70.3228C92.0406 70.3436 92.47 69.113 91.6987 68.5268L77.4471 57.6957L92.0953 47.4072C92.888 46.8504 92.5051 45.6045 91.5365 45.589L73.8356 45.3058L79.6677 28.5909Z" fill="#EA7838"/>
<path d="M78.1533 27.4399L76.4426 24.9755L76.4426 24.9755L78.1533 27.4399ZM79.6677 28.5909L82.5002 29.5792L82.5002 29.5792L79.6677 28.5909ZM63.4483 37.647L60.5807 38.5283L61.7866 42.4523L65.1589 40.1115L63.4483 37.647ZM58.1899 20.5365L55.3222 21.4178L55.3222 21.4178L58.1899 20.5365ZM56.288 20.5061L53.45 19.5335L53.45 19.5335L56.288 20.5061ZM50.5488 37.2531L48.7335 39.6416L52.0403 42.1547L53.3867 38.2257L50.5488 37.2531ZM36.4541 26.5412L38.2694 24.1528L36.4541 26.5412ZM34.8916 27.6259L37.764 26.7605L37.764 26.7605L34.8916 27.6259ZM40.055 44.7653L40.007 47.7649L44.1116 47.8306L42.9274 43.9L40.055 44.7653ZM22.157 44.4789L22.109 47.4786L22.157 44.4789ZM21.5403 46.2783L19.7383 48.6768L19.7383 48.6769L21.5403 46.2783ZM35.6941 56.9118L37.4048 59.3762L40.8167 57.0079L37.4961 54.5132L35.6941 56.9118ZM21.1511 67.0064L19.4404 64.5419L19.4404 64.5419L21.1511 67.0064ZM21.6998 68.8277L21.7644 65.8284L21.7644 65.8284L21.6998 68.8277ZM39.5959 69.2134L42.4339 70.1859L43.7648 66.3025L39.6606 66.2141L39.5959 69.2134ZM33.7928 86.1469L36.6308 87.1195L33.7928 86.1469ZM35.3136 87.2894L33.5893 84.8345L33.5892 84.8345L35.3136 87.2894ZM49.8003 77.1142L52.6728 76.2489L51.4748 72.2721L48.076 74.6593L49.8003 77.1142ZM54.9069 94.0649L52.0344 94.9302L52.0344 94.9302L54.9069 94.0649ZM56.8085 94.1059L59.6411 95.0942L59.6411 95.0942L56.8085 94.1059ZM62.7056 77.2048L64.5075 74.8063L61.2254 72.3405L59.873 76.2165L62.7056 77.2048ZM77.0171 87.9567L75.2151 90.3552L75.2151 90.3552L77.0171 87.9567ZM78.5736 86.8634L75.706 87.7447L75.706 87.7447L78.5736 86.8634ZM73.3731 69.9413L73.4377 66.942L69.2853 66.8525L70.5054 70.8226L73.3731 69.9413ZM91.0721 70.3228L91.1367 67.3235L91.1367 67.3235L91.0721 70.3228ZM77.4471 57.6957L75.7228 55.2408L72.3635 57.6003L75.6319 60.0842L77.4471 57.6957ZM92.0953 47.4072L90.371 44.9523L90.371 44.9523L92.0953 47.4072ZM91.5365 45.589L91.5845 42.5894L91.5845 42.5894L91.5365 45.589ZM73.8356 45.3058L71.0031 44.3175L69.6348 48.239L73.7876 48.3054L73.8356 45.3058ZM79.8639 29.9044C78.2723 31.0092 76.1969 29.4319 76.8351 27.6026L82.5002 29.5792C83.7767 25.9206 79.6259 22.7659 76.4426 24.9755L79.8639 29.9044ZM65.1589 40.1115L79.8639 29.9044L76.4426 24.9755L61.7376 35.1825L65.1589 40.1115ZM55.3222 21.4178L60.5807 38.5283L66.3159 36.7657L61.0575 19.6552L55.3222 21.4178ZM59.126 21.4786C58.4979 23.3114 55.8914 23.2698 55.3222 21.4178L61.0575 19.6552C59.9192 15.9513 54.7062 15.8679 53.45 19.5335L59.126 21.4786ZM53.3867 38.2257L59.126 21.4786L53.45 19.5335L47.7108 36.2805L53.3867 38.2257ZM34.6389 28.9297L48.7335 39.6416L52.364 34.8646L38.2694 24.1528L34.6389 28.9297ZM37.764 26.7605C38.3229 28.6156 36.1814 30.102 34.6389 28.9297L38.2694 24.1528C35.1843 21.8081 30.9013 24.781 32.0191 28.4912L37.764 26.7605ZM42.9274 43.9L37.764 26.7605L32.0191 28.4912L37.1825 45.6307L42.9274 43.9ZM22.109 47.4786L40.007 47.7649L40.1029 41.7657L22.2049 41.4793L22.109 47.4786ZM23.3423 43.8798C24.8913 45.0435 24.0462 47.5096 22.109 47.4786L22.2049 41.4793C18.3306 41.4173 16.6403 46.3494 19.7383 48.6768L23.3423 43.8798ZM37.4961 54.5132L23.3423 43.8798L19.7383 48.6769L33.8922 59.3103L37.4961 54.5132ZM22.8618 69.4709L37.4048 59.3762L33.9835 54.4473L19.4404 64.5419L22.8618 69.4709ZM21.7644 65.8284C23.7014 65.8701 24.4534 68.3661 22.8618 69.4709L19.4404 64.5419C16.2572 66.7515 17.7612 71.7435 21.6351 71.827L21.7644 65.8284ZM39.6606 66.2141L21.7644 65.8284L21.6351 71.827L39.5313 72.2127L39.6606 66.2141ZM36.6308 87.1195L42.4339 70.1859L36.758 68.2408L30.9548 85.1743L36.6308 87.1195ZM33.5892 84.8345C35.1747 83.7209 37.2589 85.2866 36.6308 87.1195L30.9548 85.1743C29.6986 88.84 33.867 91.9715 37.0379 89.7444L33.5892 84.8345ZM48.076 74.6593L33.5893 84.8345L37.0379 89.7444L51.5246 79.5692L48.076 74.6593ZM57.7793 93.1995L52.6728 76.2489L46.9278 77.9796L52.0344 94.9302L57.7793 93.1995ZM53.976 93.1175C54.6143 91.2883 57.2205 91.3444 57.7793 93.1995L52.0344 94.9302C53.1521 98.6404 58.3645 98.7527 59.6411 95.0942L53.976 93.1175ZM59.873 76.2165L53.976 93.1175L59.6411 95.0942L65.5381 78.1931L59.873 76.2165ZM78.819 85.5581L64.5075 74.8063L60.9036 79.6033L75.2151 90.3552L78.819 85.5581ZM75.706 87.7447C75.1368 85.8927 77.27 84.3945 78.819 85.5581L75.2151 90.3552C78.3131 92.6826 82.5795 89.6861 81.4412 85.9821L75.706 87.7447ZM70.5054 70.8226L75.706 87.7447L81.4412 85.9821L76.2407 69.06L70.5054 70.8226ZM91.1367 67.3235L73.4377 66.942L73.3084 72.9406L91.0075 73.3221L91.1367 67.3235ZM89.8835 70.9153C88.3409 69.743 89.1998 67.2817 91.1367 67.3235L91.0074 73.3221C94.8814 73.4056 96.599 68.483 93.514 66.1384L89.8835 70.9153ZM75.6319 60.0842L89.8835 70.9153L93.514 66.1384L79.2624 55.3072L75.6319 60.0842ZM90.371 44.9523L75.7228 55.2408L79.1714 60.1507L93.8196 49.8622L90.371 44.9523ZM91.4885 48.5886C89.5513 48.5576 88.7855 46.0658 90.371 44.9523L93.8196 49.8622C96.9905 47.635 95.4589 42.6514 91.5845 42.5894L91.4885 48.5886ZM73.7876 48.3054L91.4885 48.5886L91.5845 42.5894L73.8836 42.3062L73.7876 48.3054ZM76.8352 27.6026L71.0031 44.3175L76.6681 46.2941L82.5002 29.5792L76.8352 27.6026Z" fill="black" mask="url(#path-1-inside-1_110_221)"/>
</svg>
