<svg width="58" height="51" viewBox="0 0 58 51" fill="none" xmlns="http://www.w3.org/2000/svg">
<rect x="1.5" y="1.5" width="55" height="48" rx="18.5" fill="white" stroke="black" stroke-width="3"/>
<path d="M25.75 16.2308L26.5439 14.1815C26.6778 13.8346 26.9133 13.5361 27.2197 13.3253C27.526 13.1145 27.8889 13.0011 28.2608 13H29.7747C30.1465 13.0011 30.5094 13.1145 30.8158 13.3253C31.1222 13.5361 31.3577 13.8346 31.4916 14.1815L32.2854 16.2308L34.9808 17.7815L37.1593 17.4492C37.522 17.4 37.8912 17.4597 38.2199 17.6208C38.5486 17.7819 38.8221 18.037 39.0054 18.3538L39.7439 19.6462C39.9331 19.968 40.0203 20.3397 39.9939 20.7122C39.9676 21.0846 39.8289 21.4403 39.5962 21.7323L38.2485 23.4492V26.5508L39.6331 28.2677C39.8658 28.5597 40.0045 28.9154 40.0309 29.2878C40.0572 29.6603 39.97 30.032 39.7808 30.3538L39.0423 31.6462C38.859 31.963 38.5856 32.2181 38.2568 32.3792C37.9281 32.5403 37.5589 32.6 37.1962 32.5508L35.0177 32.2185L32.3223 33.7692L31.5285 35.8185C31.3946 36.1654 31.1591 36.4639 30.8527 36.6747C30.5464 36.8855 30.1835 36.9989 29.8116 37H28.2608C27.8889 36.9989 27.526 36.8855 27.2197 36.6747C26.9133 36.4639 26.6778 36.1654 26.5439 35.8185L25.75 33.7692L23.0547 32.2185L20.8762 32.5508C20.5135 32.6 20.1443 32.5403 19.8155 32.3792C19.4868 32.2181 19.2134 31.963 19.03 31.6462L18.2916 30.3538C18.1023 30.032 18.0152 29.6603 18.0415 29.2878C18.0679 28.9154 18.2066 28.5597 18.4393 28.2677L19.787 26.5508V23.4492L18.4023 21.7323C18.1697 21.4403 18.031 21.0846 18.0046 20.7122C17.9782 20.3397 18.0654 19.968 18.2547 19.6462L18.9931 18.3538C19.1765 18.037 19.4499 17.7819 19.7786 17.6208C20.1073 17.4597 20.4765 17.4 20.8393 17.4492L23.0177 17.7815L25.75 16.2308ZM25.3254 25C25.3254 25.7303 25.542 26.4441 25.9477 27.0513C26.3534 27.6585 26.9301 28.1318 27.6047 28.4112C28.2794 28.6907 29.0218 28.7638 29.7381 28.6214C30.4543 28.4789 31.1122 28.1272 31.6286 27.6109C32.145 27.0945 32.4966 26.4366 32.6391 25.7203C32.7816 25.0041 32.7084 24.2617 32.429 23.587C32.1495 22.9123 31.6763 22.3357 31.0691 21.93C30.4619 21.5242 29.748 21.3077 29.0177 21.3077C28.0385 21.3077 27.0993 21.6967 26.4069 22.3891C25.7144 23.0816 25.3254 24.0207 25.3254 25V25Z" stroke="#000001" stroke-width="3" stroke-linecap="round" stroke-linejoin="round"/>
</svg>
