<svg width="61" height="56" viewBox="0 0 61 56" fill="none" xmlns="http://www.w3.org/2000/svg">
<rect x="1.5" y="6.5" width="58" height="48" rx="18.5" fill="white" stroke="black" stroke-width="3"/>
<path d="M18.5046 34.231C17.6686 34.231 16.9756 33.978 16.4256 33.472C15.8976 32.944 15.6336 32.295 15.6336 31.525C15.6336 30.755 15.8976 30.117 16.4256 29.611C16.9756 29.083 17.6686 28.819 18.5046 28.819C19.3186 28.819 19.9896 29.083 20.5176 29.611C21.0456 30.117 21.3096 30.755 21.3096 31.525C21.3096 32.295 21.0456 32.944 20.5176 33.472C19.9896 33.978 19.3186 34.231 18.5046 34.231ZM31.0369 34.231C30.2009 34.231 29.5079 33.978 28.9579 33.472C28.4299 32.944 28.1659 32.295 28.1659 31.525C28.1659 30.755 28.4299 30.117 28.9579 29.611C29.5079 29.083 30.2009 28.819 31.0369 28.819C31.8509 28.819 32.5219 29.083 33.0499 29.611C33.5779 30.117 33.8419 30.755 33.8419 31.525C33.8419 32.295 33.5779 32.944 33.0499 33.472C32.5219 33.978 31.8509 34.231 31.0369 34.231ZM43.5691 34.231C42.7331 34.231 42.0401 33.978 41.4901 33.472C40.9621 32.944 40.6981 32.295 40.6981 31.525C40.6981 30.755 40.9621 30.117 41.4901 29.611C42.0401 29.083 42.7331 28.819 43.5691 28.819C44.3831 28.819 45.0541 29.083 45.5821 29.611C46.1101 30.117 46.3741 30.755 46.3741 31.525C46.3741 32.295 46.1101 32.944 45.5821 33.472C45.0541 33.978 44.3831 34.231 43.5691 34.231Z" fill="#272727"/>
</svg>
